# Made in Blockbench 4.10.4
mtllib house1.mtl

o cube
v 0.9375 1.875 1.125
v 0.9375 1.875 -1.125
v 0.9375 0 1.125
v 0.9375 0 -1.125
v -0.9375 1.875 -1.125
v -0.9375 1.875 1.125
v -0.9375 0 -1.125
v -0.9375 0 1.125
vt 0.4765625 0.6875
vt 0.7109375 0.6875
vt 0.7109375 0.453125
vt 0.4765625 0.453125
vt 0 0.765625
vt 0.28125 0.765625
vt 0.28125 0.53125
vt 0 0.53125
vt 0.4765625 0.453125
vt 0.7109375 0.453125
vt 0.7109375 0.21875
vt 0.4765625 0.21875
vt 0 0.765625
vt 0.28125 0.765625
vt 0.28125 0.53125
vt 0 0.53125
vn 0 0 -1
vn 1 0 0
vn 0 0 1
vn -1 0 0
usemtl m_0e9b2b00-4ed7-6741-7a0f-c589e244be33
f 4/4/1 7/3/1 5/2/1 2/1/1
f 3/8/2 4/7/2 2/6/2 1/5/2
f 8/12/3 3/11/3 1/10/3 6/9/3
f 7/16/4 8/15/4 6/14/4 5/13/4
o cube
v 1.2550079386826372 1.3936898816047911 1.25
v 1.2550079386826372 1.3936898816047911 -1.25
v 1.1300079386826372 1.1771835306586815 1.25
v 1.1300079386826372 1.1771835306586815 -1.25
v -0.09815675473054841 2.174939881604791 -1.25
v -0.09815675473054841 2.174939881604791 1.25
v -0.2231567547305484 1.9584335306586813 -1.25
v -0.2231567547305484 1.9584335306586813 1.25
vt 0.1953125 0.375
vt 0.390625 0.375
vt 0.390625 0.34375
vt 0.1953125 0.34375
vt 0.671875 1
vt 0.984375 1
vt 0.984375 0.96875
vt 0.671875 0.96875
vt 0.1953125 0.34375
vt 0.390625 0.34375
vt 0.390625 0.3125
vt 0.1953125 0.3125
vt 0.671875 0.96875
vt 0.984375 0.96875
vt 0.984375 0.9375
vt 0.671875 0.9375
vt 0.4765625 0.6875
vt 0.28125 0.6875
vt 0.28125 1
vt 0.4765625 1
vt 0.4765625 0.6875
vt 0.28125 0.6875
vt 0.28125 0.375
vt 0.4765625 0.375
vn 0 0 -1
vn 0.8660254037844387 -0.49999999999999994 0
vn 0 0 1
vn -0.8660254037844387 0.49999999999999994 0
vn 0.49999999999999994 0.8660254037844387 0
vn -0.49999999999999994 -0.8660254037844387 0
usemtl m_0e9b2b00-4ed7-6741-7a0f-c589e244be33
f 12/20/5 15/19/5 13/18/5 10/17/5
f 11/24/6 12/23/6 10/22/6 9/21/6
f 16/28/7 11/27/7 9/26/7 14/25/7
f 15/32/8 16/31/8 14/30/8 13/29/8
f 14/36/9 9/35/9 10/34/9 13/33/9
f 15/40/10 12/39/10 11/38/10 16/37/10
o cube
v -1.09375 0.5 -0.6562500000000001
v -1.09375 0.5 0.6875
v -1.09375 0.4375 -0.6562500000000001
v -1.09375 0.4375 0.6875
v -0.9374999999999999 0.5 0.6875
v -0.9375000000000001 0.5 -0.6562500000000001
v -0.9374999999999999 0.4375 0.6875
v -0.9375000000000001 0.4375 -0.6562500000000001
vt 0.2421875 0.515625
vt 0.265625 0.515625
vt 0.265625 0.5078125
vt 0.2421875 0.5078125
vt 0.7734375 0.21875
vt 0.9453125 0.21875
vt 0.9453125 0.2109375
vt 0.7734375 0.2109375
vt 0.2421875 0.5078125
vt 0.265625 0.5078125
vt 0.265625 0.5
vt 0.2421875 0.5
vt 0.796875 0.46875
vt 0.7734375 0.46875
vt 0.7734375 0.640625
vt 0.796875 0.640625
vt 0.796875 0.46875
vt 0.7734375 0.46875
vt 0.7734375 0.296875
vt 0.796875 0.296875
vn 1.2246467991473532e-16 0 1
vn -1 0 1.2246467991473532e-16
vn -1.2246467991473532e-16 0 -1
vn 0 1 0
vn 0 -1 0
usemtl m_0e9b2b00-4ed7-6741-7a0f-c589e244be33
f 20/44/11 23/43/11 21/42/11 18/41/11
f 19/48/12 20/47/12 18/46/12 17/45/12
f 24/52/13 19/51/13 17/50/13 22/49/13
f 22/56/14 17/55/14 18/54/14 21/53/14
f 23/60/15 20/59/15 19/58/15 24/57/15
o cube
v -0.5 2.2343749999999996 0.6875
v -0.5 2.2343749999999996 0.3125
v -0.5 1.6093749999999996 0.6875
v -0.5 1.6093749999999996 0.3125
v -0.875 2.2343749999999996 0.3125
v -0.875 2.2343749999999996 0.6875
v -0.875 1.6093749999999996 0.3125
v -0.875 1.6093749999999996 0.6875
vt 0 0.21875
vt 0.046875 0.21875
vt 0.046875 0.140625
vt 0 0.140625
vt 0 0.21875
vt 0.046875 0.21875
vt 0.046875 0.140625
vt 0 0.140625
vt 0 0.21875
vt 0.046875 0.21875
vt 0.046875 0.140625
vt 0 0.140625
vt 0 0.21875
vt 0.046875 0.21875
vt 0.046875 0.140625
vt 0 0.140625
vt 0.09375 0.171875
vt 0.046875 0.171875
vt 0.046875 0.21875
vt 0.09375 0.21875
vn 0 0 -1
vn 1 0 0
vn 0 0 1
vn -1 0 0
vn 0 1 0
usemtl m_0e9b2b00-4ed7-6741-7a0f-c589e244be33
f 28/64/16 31/63/16 29/62/16 26/61/16
f 27/68/17 28/67/17 26/66/17 25/65/17
f 32/72/18 27/71/18 25/70/18 30/69/18
f 31/76/19 32/75/19 30/74/19 29/73/19
f 30/80/20 25/79/20 26/78/20 29/77/20
o cube
v 1.09375 0.5 0.6875
v 1.09375 0.5 -0.65625
v 1.09375 0.4375 0.6875
v 1.09375 0.4375 -0.65625
v 0.9375 0.5 -0.65625
v 0.9375 0.5 0.6875
v 0.9375 0.4375 -0.65625
v 0.9375 0.4375 0.6875
vt 0.2421875 0.515625
vt 0.265625 0.515625
vt 0.265625 0.5078125
vt 0.2421875 0.5078125
vt 0.7734375 0.21875
vt 0.9453125 0.21875
vt 0.9453125 0.2109375
vt 0.7734375 0.2109375
vt 0.2421875 0.5078125
vt 0.265625 0.5078125
vt 0.265625 0.5
vt 0.2421875 0.5
vt 0.796875 0.46875
vt 0.7734375 0.46875
vt 0.7734375 0.640625
vt 0.796875 0.640625
vt 0.796875 0.46875
vt 0.7734375 0.46875
vt 0.7734375 0.296875
vt 0.796875 0.296875
vn 0 0 -1
vn 1 0 0
vn 0 0 1
vn 0 1 0
vn 0 -1 0
usemtl m_0e9b2b00-4ed7-6741-7a0f-c589e244be33
f 36/84/21 39/83/21 37/82/21 34/81/21
f 35/88/22 36/87/22 34/86/22 33/85/22
f 40/92/23 35/91/23 33/90/23 38/89/23
f 38/96/24 33/95/24 34/94/24 37/93/24
f 39/100/25 36/99/25 35/98/25 40/97/25
o cube
v 0.8125 1.4375 1
v 0.8125 1.4375 1.25
v 0.8125 0 1
v 0.8125 0 1.25
v 1.0625 1.4375 1.25
v 1.0625 1.4375 1
v 1.0625 0 1.25
v 1.0625 0 1
vt 0.7109375 0.8125
vt 0.7421875 0.8125
vt 0.7421875 0.6328125
vt 0.7109375 0.6328125
vt 0.7109375 0.6328125
vt 0.7421875 0.6328125
vt 0.7421875 0.453125
vt 0.7109375 0.453125
vt 0.7109375 0.453125
vt 0.7421875 0.453125
vt 0.7421875 0.2734375
vt 0.7109375 0.2734375
vt 0.7109375 0.2734375
vt 0.7421875 0.2734375
vt 0.7421875 0.09375
vt 0.7109375 0.09375
vn 1.2246467991473532e-16 0 1
vn -1 0 1.2246467991473532e-16
vn -1.2246467991473532e-16 0 -1
vn 1 0 -1.2246467991473532e-16
usemtl m_0e9b2b00-4ed7-6741-7a0f-c589e244be33
f 44/104/26 47/103/26 45/102/26 42/101/26
f 43/108/27 44/107/27 42/106/27 41/105/27
f 48/112/28 43/111/28 41/110/28 46/109/28
f 47/116/29 48/115/29 46/114/29 45/113/29
o cube
v -0.8125 1.4375 1.25
v -0.8125 1.4375 1
v -0.8125 0 1.25
v -0.8125 0 1
v -1.0625 1.4375 1
v -1.0625 1.4375 1.25
v -1.0625 0 1
v -1.0625 0 1.25
vt 0.7109375 0.8125
vt 0.7421875 0.8125
vt 0.7421875 0.6328125
vt 0.7109375 0.6328125
vt 0.7109375 0.6328125
vt 0.7421875 0.6328125
vt 0.7421875 0.453125
vt 0.7109375 0.453125
vt 0.7109375 0.453125
vt 0.7421875 0.453125
vt 0.7421875 0.2734375
vt 0.7109375 0.2734375
vt 0.7109375 0.2734375
vt 0.7421875 0.2734375
vt 0.7421875 0.09375
vt 0.7109375 0.09375
vn 0 0 -1
vn 1 0 0
vn 0 0 1
vn -1 0 0
usemtl m_0e9b2b00-4ed7-6741-7a0f-c589e244be33
f 52/120/30 55/119/30 53/118/30 50/117/30
f 51/124/31 52/123/31 50/122/31 49/121/31
f 56/128/32 51/127/32 49/126/32 54/125/32
f 55/132/33 56/131/33 54/130/33 53/129/33
o cube
v 1.0625 1.4375 -1
v 1.0625 1.4375 -1.25
v 1.0625 0 -1
v 1.0625 0 -1.25
v 0.8125 1.4375 -1.25
v 0.8125 1.4375 -1
v 0.8125 0 -1.25
v 0.8125 0 -1
vt 0.7109375 0.8125
vt 0.7421875 0.8125
vt 0.7421875 0.6328125
vt 0.7109375 0.6328125
vt 0.7109375 0.6328125
vt 0.7421875 0.6328125
vt 0.7421875 0.453125
vt 0.7109375 0.453125
vt 0.7109375 0.453125
vt 0.7421875 0.453125
vt 0.7421875 0.2734375
vt 0.7109375 0.2734375
vt 0.7109375 0.2734375
vt 0.7421875 0.2734375
vt 0.7421875 0.09375
vt 0.7109375 0.09375
vn 0 0 -1
vn 1 0 0
vn 0 0 1
vn -1 0 0
usemtl m_0e9b2b00-4ed7-6741-7a0f-c589e244be33
f 60/136/34 63/135/34 61/134/34 58/133/34
f 59/140/35 60/139/35 58/138/35 57/137/35
f 64/144/36 59/143/36 57/142/36 62/141/36
f 63/148/37 64/147/37 62/146/37 61/145/37
o cube
v -1.078125 1.4375 -1.25
v -1.078125 1.4375 -1
v -1.078125 0 -1.25
v -1.078125 0 -1
v -0.828125 1.4375 -1
v -0.828125 1.4375 -1.25
v -0.828125 0 -1
v -0.828125 0 -1.25
vt 0.7109375 0.8125
vt 0.7421875 0.8125
vt 0.7421875 0.6328125
vt 0.7109375 0.6328125
vt 0.7109375 0.6328125
vt 0.7421875 0.6328125
vt 0.7421875 0.453125
vt 0.7109375 0.453125
vt 0.7109375 0.453125
vt 0.7421875 0.453125
vt 0.7421875 0.2734375
vt 0.7109375 0.2734375
vt 0.7109375 0.2734375
vt 0.7421875 0.2734375
vt 0.7421875 0.09375
vt 0.7109375 0.09375
vn 1.2246467991473532e-16 0 1
vn -1 0 1.2246467991473532e-16
vn -1.2246467991473532e-16 0 -1
vn 1 0 -1.2246467991473532e-16
usemtl m_0e9b2b00-4ed7-6741-7a0f-c589e244be33
f 68/152/38 71/151/38 69/150/38 66/149/38
f 67/156/39 68/155/39 66/154/39 65/153/39
f 72/160/40 67/159/40 65/158/40 70/157/40
f 71/164/41 72/163/41 70/162/41 69/161/41
o cube
v -1.2550079386826372 1.393689881604791 -1.25
v -1.2550079386826372 1.3936898816047913 1.25
v -1.1300079386826372 1.1771835306586813 -1.25
v -1.1300079386826372 1.1771835306586818 1.25
v 0.09815675473054863 2.174939881604791 1.2499999999999998
v 0.09815675473054863 2.1749398816047907 -1.2500000000000002
v 0.22315675473054863 1.9584335306586818 1.25
v 0.22315675473054863 1.9584335306586809 -1.25
vt 0.1953125 0.375
vt 0.390625 0.375
vt 0.390625 0.34375
vt 0.1953125 0.34375
vt 0.671875 1
vt 0.984375 1
vt 0.984375 0.96875
vt 0.671875 0.96875
vt 0.1953125 0.34375
vt 0.390625 0.34375
vt 0.390625 0.3125
vt 0.1953125 0.3125
vt 0.671875 0.96875
vt 0.984375 0.96875
vt 0.984375 0.9375
vt 0.671875 0.9375
vt 0.4765625 0.6875
vt 0.28125 0.6875
vt 0.28125 1
vt 0.4765625 1
vt 0.4765625 0.6875
vt 0.28125 0.6875
vt 0.28125 0.375
vt 0.4765625 0.375
vn 1.4217365409357602e-17 1.4961843157624744e-16 1
vn -0.8660254037844387 -0.49999999999999994 8.712181540751353e-17
vn -1.4217365409357602e-17 -1.4961843157624744e-16 -1
vn 0.8660254037844387 0.49999999999999994 -8.712181540751353e-17
vn -0.49999999999999994 0.8660254037844388 -1.2246467991473535e-16
vn 0.49999999999999994 -0.8660254037844388 1.2246467991473535e-16
usemtl m_0e9b2b00-4ed7-6741-7a0f-c589e244be33
f 76/168/42 79/167/42 77/166/42 74/165/42
f 75/172/43 76/171/43 74/170/43 73/169/43
f 80/176/44 75/175/44 73/174/44 78/173/44
f 79/180/45 80/179/45 78/178/45 77/177/45
f 78/184/46 73/183/46 74/182/46 77/181/46
f 79/188/47 76/187/47 75/186/47 80/185/47